<svg width="86" height="38" viewBox="0 0 86 38" fill="none" xmlns="http://www.w3.org/2000/svg">
<path d="M37.3359 10.9521H41.2743V20.614H45.764V10.9521H49.7024V20.614H51.5935V27.4922H48.1024V24.0781H37.3379V10.9521H37.3359Z" fill="#333F48"/>
<path d="M51.7227 10.9521H56.0813L58.969 18.6978L61.3575 10.9521H65.533L60.3609 25.4719C60.0467 26.3644 59.7305 27.0816 59.4163 27.6252C59.1021 28.1669 58.7724 28.5929 58.4312 28.8994C58.09 29.2059 57.7179 29.4122 57.315 29.5163C56.9121 29.6204 56.4668 29.6744 55.9753 29.6744C55.5724 29.6744 55.1656 29.6223 54.755 29.5163C54.3444 29.4103 54.0417 29.2715 53.849 29.096V25.63C54.0417 25.8227 54.2557 25.9673 54.4928 26.0637C54.7299 26.1601 54.9613 26.2083 55.1887 26.2083C55.7304 26.2083 56.1468 26.002 56.436 25.5914C56.7251 25.1808 56.9565 24.695 57.1319 24.134L51.7227 10.9521Z" fill="#333F48"/>
<path d="M67.293 10.951H70.9942V13.6036C71.0983 13.2528 71.2603 12.9077 71.48 12.5665C71.6979 12.2253 71.9832 11.9149 72.334 11.6354C72.6849 11.3559 73.109 11.1322 73.6083 10.9665C74.1075 10.8007 74.6897 10.7178 75.3548 10.7178C76.1432 10.7178 76.8815 10.8411 77.5736 11.086C78.2657 11.3308 78.8633 11.7163 79.3722 12.2407C79.8792 12.765 80.2782 13.4397 80.5674 14.2629C80.8566 15.086 81.0011 16.075 81.0011 17.2297C81.0011 18.5251 80.8566 19.6239 80.5674 20.5242C80.2782 21.4264 79.8715 22.1608 79.3471 22.7295C78.8228 23.2982 78.1963 23.7146 77.4695 23.9768C76.7428 24.239 75.9504 24.37 75.0926 24.37C74.094 24.37 73.2805 24.1638 72.6502 23.7532C72.0198 23.3425 71.5475 22.8298 71.2333 22.2168V29.4901H67.2949V10.951H67.293ZM71.2314 17.8292C71.2314 18.8625 71.4762 19.6316 71.9658 20.1386C72.4555 20.6456 73.1552 20.9001 74.0671 20.9001C75.1177 20.9001 75.8734 20.6341 76.3379 20.1001C76.8006 19.5661 77.0339 18.6524 77.0339 17.3569C77.0339 16.2022 76.7755 15.3829 76.2589 14.9029C75.7423 14.421 75.056 14.18 74.1981 14.18C73.1475 14.18 72.3996 14.4248 71.9543 14.9145C71.507 15.4041 71.268 16.0962 71.2314 16.9887V17.8292Z" fill="#333F48"/>
<path d="M16.4314 10.367L16.3945 1.00439L17.62 1L17.6578 10.3617L16.4314 10.367Z" fill="url(#paint0_linear_1211_56326)"/>
<path d="M18.9036 10.5942L17.6982 10.3695L18.505 6.05469L19.7095 6.27942L18.9036 10.5942Z" fill="url(#paint1_linear_1211_56326)"/>
<path d="M20.0889 11.0414L18.9468 10.5945L20.2873 7.16992L21.4285 7.61676L20.0889 11.0414Z" fill="url(#paint2_linear_1211_56326)"/>
<path d="M21.1904 11.6637L20.1255 11.057L24.8783 2.71191L25.9432 3.31853L21.1904 11.6637Z" fill="url(#paint3_linear_1211_56326)"/>
<path d="M22.147 12.4981L21.2217 11.6931L24.2477 8.21582L25.173 9.02084L22.147 12.4981Z" fill="url(#paint4_linear_1211_56326)"/>
<path d="M22.9598 13.4691L22.1724 12.5297L27.818 7.79883L28.6055 8.73816L22.9598 13.4691Z" fill="url(#paint5_linear_1211_56326)"/>
<path d="M23.5767 14.5773L22.978 13.5081L31.4145 8.78418L32.0132 9.85344L23.5767 14.5773Z" fill="url(#paint6_linear_1211_56326)"/>
<path d="M23.9943 15.7745L23.5957 14.6157L31.5151 11.8916L31.9145 13.0504L23.9943 15.7745Z" fill="url(#paint7_linear_1211_56326)"/>
<path d="M24.2082 17.0219L23.9932 15.8157L28.4546 15.0186L28.6696 16.2248L24.2082 17.0219Z" fill="url(#paint8_linear_1211_56326)"/>
<path d="M27.241 18.3357L24.1807 18.2909L24.1982 17.0654L27.2585 17.1102L27.241 18.3357Z" fill="url(#paint9_linear_1211_56326)"/>
<path d="M31.0708 20.949L23.938 19.5338L24.1768 18.332L31.3096 19.7472L31.0708 20.949Z" fill="url(#paint10_linear_1211_56326)"/>
<path d="M29.4646 23.0023L23.4854 20.719L23.9225 19.5742L29.9018 21.8576L29.4646 23.0023Z" fill="url(#paint11_linear_1211_56326)"/>
<path d="M26.6625 24.1947L22.8218 21.7981L23.4705 20.7578L27.3113 23.1553L26.6625 24.1947Z" fill="url(#paint12_linear_1211_56326)"/>
<path d="M25.3562 25.7117L21.9922 22.7559L22.8016 21.835L26.1648 24.7917L25.3562 25.7117Z" fill="url(#paint13_linear_1211_56326)"/>
<path d="M23.3655 26.347L21.0137 23.5615L21.9504 22.7705L24.3022 25.556L23.3655 26.347Z" fill="url(#paint14_linear_1211_56326)"/>
<path d="M21.021 26.2427L19.8921 24.1542L20.971 23.5713L22.0991 25.6606L21.021 26.2427Z" fill="url(#paint15_linear_1211_56326)"/>
<path d="M20.7413 30.6239L18.6914 24.5604L19.852 24.168L21.9018 30.2315L20.7413 30.6239Z" fill="url(#paint16_linear_1211_56326)"/>
<path d="M18.6766 33.2188L17.437 24.7446L18.6494 24.5664L19.8889 33.0406L18.6766 33.2188Z" fill="url(#paint17_linear_1211_56326)"/>
<path d="M17.2704 32.1769L16.0449 32.1559L16.1713 24.7158L17.3969 24.7369L17.2704 32.1769Z" fill="url(#paint18_linear_1211_56326)"/>
<path d="M14.846 30.9706L13.645 30.7248L14.9285 24.4541L16.1294 24.6999L14.846 30.9706Z" fill="url(#paint19_linear_1211_56326)"/>
<path d="M13.7252 27.4013L12.584 26.9527L13.7516 23.9863L14.8919 24.4349L13.7252 27.4013Z" fill="url(#paint20_linear_1211_56326)"/>
<path d="M10.3526 29.4044L9.31055 28.7592L12.6763 23.3154L13.7184 23.9607L10.3526 29.4044Z" fill="url(#paint21_linear_1211_56326)"/>
<path d="M6.96055 29.684L6.04492 28.8702L11.7318 22.4688L12.6483 23.2825L6.96055 29.684Z" fill="url(#paint22_linear_1211_56326)"/>
<path d="M8.10108 25.2116L7.354 24.2398L10.9568 21.4648L11.7048 22.4358L8.10108 25.2116Z" fill="url(#paint23_linear_1211_56326)"/>
<path d="M6.25852 23.8686L5.69141 22.7818L10.3626 20.3457L10.9297 21.4325L6.25852 23.8686Z" fill="url(#paint24_linear_1211_56326)"/>
<path d="M7.58048 21.277L7.17578 20.1208L9.95954 19.1455L10.3642 20.3026L7.58048 21.277Z" fill="url(#paint25_linear_1211_56326)"/>
<path d="M5.5372 19.7302L5.36426 18.5169L9.79931 17.8857L9.97137 19.099L5.5372 19.7302Z" fill="url(#paint26_linear_1211_56326)"/>
<path d="M9.8068 17.8436L0 17.46L0.0474063 16.2354L9.85421 16.619L9.8068 17.8436Z" fill="url(#paint27_linear_1211_56326)"/>
<path d="M9.86025 16.577L6.01514 15.6938L6.28991 14.499L10.135 15.3822L9.86025 16.577Z" fill="url(#paint28_linear_1211_56326)"/>
<path d="M10.143 15.3412L7.14062 14.0849L7.6138 12.9551L10.6162 14.2104L10.143 15.3412Z" fill="url(#paint29_linear_1211_56326)"/>
<path d="M10.6371 14.1762L5.2373 10.7402L5.89484 9.70605L11.2947 13.1421L10.6371 14.1762Z" fill="url(#paint30_linear_1211_56326)"/>
<path d="M11.3328 13.1179L8.19434 10.3008L9.0134 9.38867L12.1518 12.2067L11.3328 13.1179Z" fill="url(#paint31_linear_1211_56326)"/>
<path d="M12.189 12.1857L11.0908 10.7399L12.067 9.99805L13.1653 11.4448L12.189 12.1857Z" fill="url(#paint32_linear_1211_56326)"/>
<path d="M13.2053 11.4322L12.6118 10.305L13.6969 9.73438L14.2894 10.8607L13.2053 11.4322Z" fill="url(#paint33_linear_1211_56326)"/>
<path d="M14.3314 10.8485L13.6177 8.44227L14.7932 8.09375L15.5069 10.5L14.3314 10.8485Z" fill="url(#paint34_linear_1211_56326)"/>
<path d="M15.5472 10.5007L14.9985 6.60293L16.2118 6.43262L16.7604 10.3304L15.5472 10.5007Z" fill="url(#paint35_linear_1211_56326)"/>
<defs>
<linearGradient id="paint0_linear_1211_56326" x1="-1.48123" y1="24.7541" x2="21.4583" y2="1.11602" gradientUnits="userSpaceOnUse">
<stop stop-color="#B3055E"/>
<stop offset="0.9963" stop-color="#242875"/>
</linearGradient>
<linearGradient id="paint1_linear_1211_56326" x1="0.702652" y1="26.8741" x2="23.6421" y2="3.23599" gradientUnits="userSpaceOnUse">
<stop stop-color="#B3055E"/>
<stop offset="0.9963" stop-color="#242875"/>
</linearGradient>
<linearGradient id="paint2_linear_1211_56326" x1="1.85715" y1="27.9947" x2="24.7966" y2="4.35648" gradientUnits="userSpaceOnUse">
<stop stop-color="#B3055E"/>
<stop offset="0.9963" stop-color="#242875"/>
</linearGradient>
<linearGradient id="paint3_linear_1211_56326" x1="2.36538" y1="28.4863" x2="25.3049" y2="4.84812" gradientUnits="userSpaceOnUse">
<stop stop-color="#B3055E"/>
<stop offset="0.9963" stop-color="#242875"/>
</linearGradient>
<linearGradient id="paint4_linear_1211_56326" x1="4.03276" y1="30.1051" x2="26.9723" y2="6.46697" gradientUnits="userSpaceOnUse">
<stop stop-color="#B3055E"/>
<stop offset="0.9963" stop-color="#242875"/>
</linearGradient>
<linearGradient id="paint5_linear_1211_56326" x1="5.29968" y1="31.3355" x2="28.2392" y2="7.69738" gradientUnits="userSpaceOnUse">
<stop stop-color="#B3055E"/>
<stop offset="0.9963" stop-color="#242875"/>
</linearGradient>
<linearGradient id="paint6_linear_1211_56326" x1="6.90819" y1="32.8954" x2="29.8477" y2="9.25721" gradientUnits="userSpaceOnUse">
<stop stop-color="#B3055E"/>
<stop offset="0.9963" stop-color="#242875"/>
</linearGradient>
<linearGradient id="paint7_linear_1211_56326" x1="8.11716" y1="34.0687" x2="31.0567" y2="10.4305" gradientUnits="userSpaceOnUse">
<stop stop-color="#B3055E"/>
<stop offset="0.9963" stop-color="#242875"/>
</linearGradient>
<linearGradient id="paint8_linear_1211_56326" x1="8.47716" y1="34.4182" x2="31.4167" y2="10.78" gradientUnits="userSpaceOnUse">
<stop stop-color="#B3055E"/>
<stop offset="0.9963" stop-color="#242875"/>
</linearGradient>
<linearGradient id="paint9_linear_1211_56326" x1="9.0019" y1="34.9274" x2="31.9414" y2="11.2893" gradientUnits="userSpaceOnUse">
<stop stop-color="#B3055E"/>
<stop offset="0.9963" stop-color="#242875"/>
</linearGradient>
<linearGradient id="paint10_linear_1211_56326" x1="10.9532" y1="36.8187" x2="33.8927" y2="13.1805" gradientUnits="userSpaceOnUse">
<stop stop-color="#B3055E"/>
<stop offset="0.9963" stop-color="#242875"/>
</linearGradient>
<linearGradient id="paint11_linear_1211_56326" x1="11.2966" y1="37.1542" x2="34.2361" y2="13.516" gradientUnits="userSpaceOnUse">
<stop stop-color="#B3055E"/>
<stop offset="0.9963" stop-color="#242875"/>
</linearGradient>
<linearGradient id="paint12_linear_1211_56326" x1="11.0528" y1="36.9168" x2="33.9922" y2="13.2786" gradientUnits="userSpaceOnUse">
<stop stop-color="#B3055E"/>
<stop offset="0.9963" stop-color="#242875"/>
</linearGradient>
<linearGradient id="paint13_linear_1211_56326" x1="11.1916" y1="37.0533" x2="34.1311" y2="13.4151" gradientUnits="userSpaceOnUse">
<stop stop-color="#B3055E"/>
<stop offset="0.9963" stop-color="#242875"/>
</linearGradient>
<linearGradient id="paint14_linear_1211_56326" x1="10.8522" y1="36.7241" x2="33.7917" y2="13.086" gradientUnits="userSpaceOnUse">
<stop stop-color="#B3055E"/>
<stop offset="0.9963" stop-color="#242875"/>
</linearGradient>
<linearGradient id="paint15_linear_1211_56326" x1="10.1713" y1="36.0615" x2="33.1108" y2="12.4233" gradientUnits="userSpaceOnUse">
<stop stop-color="#B3055E"/>
<stop offset="0.9963" stop-color="#242875"/>
</linearGradient>
<linearGradient id="paint16_linear_1211_56326" x1="11.0545" y1="36.9197" x2="33.994" y2="13.2815" gradientUnits="userSpaceOnUse">
<stop stop-color="#B3055E"/>
<stop offset="0.9963" stop-color="#242875"/>
</linearGradient>
<linearGradient id="paint17_linear_1211_56326" x1="10.9612" y1="36.829" x2="33.9007" y2="13.1908" gradientUnits="userSpaceOnUse">
<stop stop-color="#B3055E"/>
<stop offset="0.9963" stop-color="#242875"/>
</linearGradient>
<linearGradient id="paint18_linear_1211_56326" x1="9.73882" y1="35.6409" x2="32.6783" y2="12.0028" gradientUnits="userSpaceOnUse">
<stop stop-color="#B3055E"/>
<stop offset="0.9963" stop-color="#242875"/>
</linearGradient>
<linearGradient id="paint19_linear_1211_56326" x1="8.42672" y1="34.3699" x2="31.3662" y2="10.7317" gradientUnits="userSpaceOnUse">
<stop stop-color="#B3055E"/>
<stop offset="0.9963" stop-color="#242875"/>
</linearGradient>
<linearGradient id="paint20_linear_1211_56326" x1="6.82597" y1="32.8163" x2="29.7655" y2="9.17814" gradientUnits="userSpaceOnUse">
<stop stop-color="#B3055E"/>
<stop offset="0.9963" stop-color="#242875"/>
</linearGradient>
<linearGradient id="paint21_linear_1211_56326" x1="6.01397" y1="32.0279" x2="28.9535" y2="8.38976" gradientUnits="userSpaceOnUse">
<stop stop-color="#B3055E"/>
<stop offset="0.9963" stop-color="#242875"/>
</linearGradient>
<linearGradient id="paint22_linear_1211_56326" x1="4.75657" y1="30.8063" x2="27.6961" y2="7.16816" gradientUnits="userSpaceOnUse">
<stop stop-color="#B3055E"/>
<stop offset="0.9963" stop-color="#242875"/>
</linearGradient>
<linearGradient id="paint23_linear_1211_56326" x1="3.48154" y1="29.5701" x2="26.421" y2="5.93191" gradientUnits="userSpaceOnUse">
<stop stop-color="#B3055E"/>
<stop offset="0.9963" stop-color="#242875"/>
</linearGradient>
<linearGradient id="paint24_linear_1211_56326" x1="2.23786" y1="28.3649" x2="25.1774" y2="4.72675" gradientUnits="userSpaceOnUse">
<stop stop-color="#B3055E"/>
<stop offset="0.9963" stop-color="#242875"/>
</linearGradient>
<linearGradient id="paint25_linear_1211_56326" x1="1.52834" y1="27.6738" x2="24.4678" y2="4.03561" gradientUnits="userSpaceOnUse">
<stop stop-color="#B3055E"/>
<stop offset="0.9963" stop-color="#242875"/>
</linearGradient>
<linearGradient id="paint26_linear_1211_56326" x1="0.258589" y1="26.4429" x2="23.1981" y2="2.8047" gradientUnits="userSpaceOnUse">
<stop stop-color="#B3055E"/>
<stop offset="0.9963" stop-color="#242875"/>
</linearGradient>
<linearGradient id="paint27_linear_1211_56326" x1="-2.03674" y1="24.2158" x2="20.9028" y2="0.577647" gradientUnits="userSpaceOnUse">
<stop stop-color="#B3055E"/>
<stop offset="0.9963" stop-color="#242875"/>
</linearGradient>
<linearGradient id="paint28_linear_1211_56326" x1="-1.16545" y1="25.0599" x2="21.7741" y2="1.42169" gradientUnits="userSpaceOnUse">
<stop stop-color="#B3055E"/>
<stop offset="0.9963" stop-color="#242875"/>
</linearGradient>
<linearGradient id="paint29_linear_1211_56326" x1="-1.44652" y1="24.7873" x2="21.493" y2="1.14907" gradientUnits="userSpaceOnUse">
<stop stop-color="#B3055E"/>
<stop offset="0.9963" stop-color="#242875"/>
</linearGradient>
<linearGradient id="paint30_linear_1211_56326" x1="-2.86567" y1="23.4119" x2="20.0739" y2="-0.226303" gradientUnits="userSpaceOnUse">
<stop stop-color="#B3055E"/>
<stop offset="0.9963" stop-color="#242875"/>
</linearGradient>
<linearGradient id="paint31_linear_1211_56326" x1="-2.22646" y1="24.0306" x2="20.7131" y2="0.392398" gradientUnits="userSpaceOnUse">
<stop stop-color="#B3055E"/>
<stop offset="0.9963" stop-color="#242875"/>
</linearGradient>
<linearGradient id="paint32_linear_1211_56326" x1="-1.30047" y1="24.9298" x2="21.639" y2="1.2916" gradientUnits="userSpaceOnUse">
<stop stop-color="#B3055E"/>
<stop offset="0.9963" stop-color="#242875"/>
</linearGradient>
<linearGradient id="paint33_linear_1211_56326" x1="-0.874219" y1="25.3444" x2="22.0653" y2="1.7062" gradientUnits="userSpaceOnUse">
<stop stop-color="#B3055E"/>
<stop offset="0.9963" stop-color="#242875"/>
</linearGradient>
<linearGradient id="paint34_linear_1211_56326" x1="-0.856887" y1="25.3598" x2="22.0826" y2="1.72164" gradientUnits="userSpaceOnUse">
<stop stop-color="#B3055E"/>
<stop offset="0.9963" stop-color="#242875"/>
</linearGradient>
<linearGradient id="paint35_linear_1211_56326" x1="-0.68132" y1="25.5318" x2="22.2582" y2="1.89358" gradientUnits="userSpaceOnUse">
<stop stop-color="#B3055E"/>
<stop offset="0.9963" stop-color="#242875"/>
</linearGradient>
</defs>
</svg>
